<svg width="47" height="54" viewBox="0 0 47 54" fill="none" xmlns="http://www.w3.org/2000/svg">
<path d="M36.9807 23.8747V10.9863C36.9808 10.5324 36.8614 10.0864 36.6344 9.69331C36.4075 9.30018 36.0811 8.97372 35.688 8.74676L24.5262 2.30258C24.1331 2.07566 23.6872 1.9562 23.2333 1.9562C22.7794 1.9562 22.3335 2.07566 21.9403 2.30258L10.7786 8.74676C10.3855 8.97375 10.0591 9.30021 9.83218 9.69334C9.60525 10.0865 9.4858 10.5324 9.48584 10.9863V23.8747C9.48576 24.3286 9.60519 24.7746 9.83212 25.1677C10.059 25.5608 10.3855 25.8873 10.7786 26.1142L21.94 32.5584C22.3331 32.7855 22.7791 32.905 23.2331 32.905C23.6871 32.905 24.1331 32.7855 24.5262 32.5584L35.6876 26.1142C36.0808 25.8873 36.4073 25.5609 36.6343 25.1677C36.8613 24.7746 36.9808 24.3286 36.9807 23.8747Z" fill="white"/>
<path d="M34.3645 22.3641V12.4967C34.3645 12.0428 34.245 11.5969 34.0181 11.2039C33.7911 10.8108 33.4648 10.4844 33.0717 10.2575L24.5262 5.32375C24.1331 5.09675 23.6872 4.97725 23.2333 4.97725C22.7794 4.97725 22.3334 5.09675 21.9403 5.32375L13.3948 10.2575C13.0017 10.4844 12.6753 10.8108 12.4483 11.2038C12.2213 11.5969 12.1017 12.0428 12.1017 12.4967V22.3641C12.1017 22.8181 12.2212 23.264 12.4482 23.6572C12.6752 24.0503 13.0017 24.3767 13.3948 24.6037L21.9403 29.5374C22.3335 29.7643 22.7794 29.8838 23.2333 29.8838C23.6872 29.8838 24.1331 29.7643 24.5262 29.5374L33.0717 24.6037C33.4649 24.3767 33.7914 24.0503 34.0184 23.6572C34.2454 23.264 34.3649 22.8181 34.3649 22.3641" fill="#000004"/>
<path fill-rule="evenodd" clip-rule="evenodd" d="M21.94 2.3024L10.7786 8.74657C10.3855 8.97357 10.0591 9.30003 9.83218 9.69316C9.60525 10.0863 9.4858 10.5322 9.48584 10.9861V23.8745C9.48576 24.3284 9.60519 24.7744 9.83212 25.1675C10.059 25.5606 10.3855 25.8871 10.7786 26.1141L21.94 32.5582C22.3331 32.7853 22.7791 32.9048 23.2331 32.9048C23.6871 32.9048 24.1331 32.7853 24.5262 32.5582L35.6876 26.1141C36.0808 25.8871 36.4073 25.5607 36.6343 25.1676C36.8613 24.7744 36.9808 24.3285 36.9807 23.8745V10.9861C36.9808 10.5322 36.8614 10.0863 36.6344 9.69313C36.4075 9.3 36.0811 8.97354 35.688 8.74657L24.5266 2.3024C24.1334 2.07541 23.6875 1.9559 23.2335 1.9559C22.7795 1.9559 22.3335 2.07541 21.9403 2.3024H21.94ZM22.039 19.2852L13.2282 24.4992C12.881 24.2618 12.5969 23.9433 12.4006 23.5713C12.2043 23.1993 12.1017 22.785 12.1017 22.3644V12.4966C12.1017 12.0427 12.2213 11.5968 12.4483 11.2038C12.6753 10.8107 13.0017 10.4843 13.3948 10.2574L21.9403 5.32368C22.3334 5.09668 22.7794 4.97718 23.2333 4.97718C23.6872 4.97718 24.1331 5.09668 24.5262 5.32368L33.0717 10.2574C33.4648 10.4843 33.7913 10.8107 34.0183 11.2038C34.2453 11.5968 34.3648 12.0427 34.3649 12.4966V22.364C34.3649 22.7724 34.2682 23.1751 34.0826 23.5389C33.8971 23.9027 33.6281 24.2175 33.2975 24.4573L24.5566 19.2856C23.8616 18.874 22.7343 18.874 22.039 19.2856" fill="#F5C423"/>
<path fill-rule="evenodd" clip-rule="evenodd" d="M21.9 10.7888L13.0903 15.7225C12.6801 15.9509 12.3387 16.2852 12.1017 16.6905V20.1487C12.3387 19.7434 12.6801 19.4092 13.0903 19.1807L21.9 14.247C22.3076 14.0198 22.7665 13.9005 23.2331 13.9005C23.6997 13.9005 24.1586 14.0198 24.5662 14.247L33.3762 19.1807C33.7864 19.4092 34.1278 19.7434 34.3649 20.1487V16.6905C34.1279 16.2852 33.7864 15.9509 33.3762 15.7225L24.5662 10.7888C24.1586 10.5616 23.6997 10.4423 23.2331 10.4423C22.7665 10.4423 22.3076 10.5616 21.9 10.7888Z" fill="#F5C423"/>
<path fill-rule="evenodd" clip-rule="evenodd" d="M21.9 14.247L13.0903 19.1807C12.6801 19.4091 12.3387 19.7434 12.1017 20.1487V22.364C12.1017 22.7846 12.2043 23.1989 12.4006 23.5709C12.5969 23.9429 12.881 24.2614 13.2282 24.4988L22.039 19.2852C22.7343 18.8743 23.8612 18.8743 24.5566 19.2852L33.2971 24.4569C33.6276 24.2172 33.8966 23.9025 34.0821 23.5388C34.2676 23.1751 34.3644 22.7727 34.3645 22.3644V20.1487C34.1275 19.7434 33.7863 19.4092 33.3762 19.1807L24.5662 14.247C24.1586 14.0198 23.6997 13.9005 23.2331 13.9005C22.7665 13.9005 22.3076 14.0198 21.9 14.247Z" fill="#000004"/>
<path fill-rule="evenodd" clip-rule="evenodd" d="M16.8092 1.08629C15.9408 0.550685 15.2953 0.270788 14.2691 0.0239096C12.8212 -0.245237 11.8018 1.84728 13.2812 2.01161C13.6344 2.07726 14.4971 2.31991 14.7037 2.40131C15.2258 2.60672 15.8352 2.97377 16.3251 3.41723C16.6362 3.69502 16.9119 4.01006 17.146 4.35522L19.0143 3.27633C18.4399 2.38596 17.6935 1.66145 16.8092 1.08629ZM29.6573 1.08629C28.7731 1.66145 28.0267 2.38595 27.4523 3.27671L29.3206 4.35522C29.5547 4.01008 29.8304 3.69504 30.1414 3.41723C30.6314 2.97377 31.2407 2.60672 31.7629 2.40131C31.9694 2.31991 32.8322 2.07726 33.1854 2.01161C34.6647 1.84728 33.6454 -0.245237 32.1975 0.0239096C31.1712 0.270788 30.5258 0.550685 29.6573 1.08629Z" fill="#F5C423"/>
<path d="M0.2757 52.2683V49.7588H1.84903V50.0848H0.654328V50.8494H1.76693V51.1741H0.654328V51.9424H1.86373V52.2683H0.2757ZM3.39635 50.8543V51.1729H2.28374V50.8543H3.39635ZM5.96038 50.5749H5.57808C5.56338 50.4932 5.53601 50.4213 5.49598 50.3592C5.45596 50.2972 5.40694 50.2445 5.34894 50.2012C5.29094 50.1579 5.226 50.1252 5.15412 50.1031C5.08305 50.0811 5.00748 50.0701 4.92743 50.0701C4.78284 50.0701 4.65336 50.1064 4.539 50.1791C4.42545 50.2518 4.33559 50.3584 4.26942 50.4989C4.20407 50.6394 4.1714 50.811 4.1714 51.0136C4.1714 51.2178 4.20407 51.3902 4.26942 51.5307C4.33559 51.6712 4.42586 51.7774 4.54022 51.8492C4.65459 51.9211 4.78325 51.9571 4.9262 51.9571C5.00544 51.9571 5.0806 51.9465 5.15166 51.9252C5.22355 51.9032 5.28849 51.8709 5.34649 51.8284C5.40449 51.7859 5.4535 51.7341 5.49353 51.6728C5.53438 51.6107 5.56256 51.5396 5.57808 51.4596L5.96038 51.4608C5.93996 51.5842 5.90034 51.6977 5.84153 51.8015C5.78353 51.9044 5.70878 51.9934 5.61729 52.0686C5.52662 52.1429 5.42287 52.2005 5.30606 52.2414C5.18924 52.2822 5.06181 52.3026 4.92375 52.3026C4.70646 52.3026 4.51286 52.2512 4.34294 52.1482C4.17303 52.0445 4.03906 51.8962 3.94104 51.7034C3.84383 51.5106 3.79522 51.2807 3.79522 51.0136C3.79522 50.7456 3.84423 50.5157 3.94226 50.3237C4.04029 50.1309 4.17426 49.9831 4.34417 49.8801C4.51408 49.7764 4.70728 49.7245 4.92375 49.7245C5.05691 49.7245 5.18107 49.7437 5.29625 49.7821C5.41225 49.8197 5.51641 49.8752 5.60871 49.9488C5.70102 50.0215 5.7774 50.1105 5.83785 50.2159C5.8983 50.3204 5.93915 50.4401 5.96038 50.5749ZM8.55536 51.0136C8.55536 51.2815 8.50635 51.5119 8.40832 51.7047C8.3103 51.8966 8.17592 52.0445 8.00519 52.1482C7.83527 52.2512 7.64208 52.3026 7.42561 52.3026C7.20831 52.3026 7.0143 52.2512 6.84357 52.1482C6.67366 52.0445 6.53969 51.8962 6.44166 51.7034C6.34364 51.5106 6.29462 51.2807 6.29462 51.0136C6.29462 50.7456 6.34364 50.5157 6.44166 50.3237C6.53969 50.1309 6.67366 49.9831 6.84357 49.8801C7.0143 49.7764 7.20831 49.7245 7.42561 49.7245C7.64208 49.7245 7.83527 49.7764 8.00519 49.8801C8.17592 49.9831 8.3103 50.1309 8.40832 50.3237C8.50635 50.5157 8.55536 50.7456 8.55536 51.0136ZM8.18041 51.0136C8.18041 50.8093 8.14733 50.6374 8.08116 50.4977C8.01581 50.3572 7.92595 50.251 7.81158 50.1791C7.69804 50.1064 7.56938 50.0701 7.42561 50.0701C7.28102 50.0701 7.15195 50.1064 7.0384 50.1791C6.92485 50.251 6.83499 50.3572 6.76883 50.4977C6.70348 50.6374 6.6708 50.8093 6.6708 51.0136C6.6708 51.2178 6.70348 51.3902 6.76883 51.5307C6.83499 51.6703 6.92485 51.7765 7.0384 51.8492C7.15195 51.9211 7.28102 51.9571 7.42561 51.9571C7.56938 51.9571 7.69804 51.9211 7.81158 51.8492C7.92595 51.7765 8.01581 51.6703 8.08116 51.5307C8.14733 51.3902 8.18041 51.2178 8.18041 51.0136ZM8.98947 49.7588H9.44896L10.2479 51.7096H10.2773L11.0762 49.7588H11.5357V52.2683H11.1755V50.4524H11.1522L10.4121 52.2646H10.1131L9.37299 50.4511H9.34971V52.2683H8.98947V49.7588ZM12.0482 49.7588H12.5077L13.3066 51.7096H13.3361L14.135 49.7588H14.5945V52.2683H14.2342V50.4524H14.2109L13.4708 52.2646H13.1719L12.4318 50.4511H12.4085V52.2683H12.0482V49.7588ZM15.107 52.2683V49.7588H16.6803V50.0848H15.4856V50.8494H16.5982V51.1741H15.4856V51.9424H16.695V52.2683H15.107ZM17.1481 52.2683V49.7588H18.0426C18.237 49.7588 18.3984 49.7923 18.5266 49.8593C18.6557 49.9263 18.7521 50.019 18.8158 50.1375C18.8795 50.2551 18.9114 50.3911 18.9114 50.5455C18.9114 50.6991 18.8791 50.8343 18.8146 50.9511C18.7509 51.0671 18.6545 51.1573 18.5254 51.2219C18.3971 51.2864 18.2358 51.3187 18.0414 51.3187H17.3638V50.9927H18.0071C18.1296 50.9927 18.2293 50.9752 18.3061 50.94C18.3837 50.9049 18.4404 50.8539 18.4764 50.7869C18.5123 50.7199 18.5303 50.6394 18.5303 50.5455C18.5303 50.4507 18.5119 50.3686 18.4752 50.2992C18.4392 50.2298 18.3824 50.1767 18.3048 50.1399C18.2281 50.1023 18.1272 50.0835 18.0022 50.0835H17.5268V52.2683H17.1481ZM18.3869 51.1361L19.007 52.2683H18.5756L17.9679 51.1361H18.3869ZM21.4184 50.5749H21.0361C21.0214 50.4932 20.9941 50.4213 20.954 50.3592C20.914 50.2972 20.865 50.2445 20.807 50.2012C20.749 50.1579 20.6841 50.1252 20.6122 50.1031C20.5411 50.0811 20.4655 50.0701 20.3855 50.0701C20.2409 50.0701 20.1114 50.1064 19.9971 50.1791C19.8835 50.2518 19.7936 50.3584 19.7275 50.4989C19.6621 50.6394 19.6295 50.811 19.6295 51.0136C19.6295 51.2178 19.6621 51.3902 19.7275 51.5307C19.7936 51.6712 19.8839 51.7774 19.9983 51.8492C20.1126 51.9211 20.2413 51.9571 20.3843 51.9571C20.4635 51.9571 20.5387 51.9465 20.6097 51.9252C20.6816 51.9032 20.7465 51.8709 20.8045 51.8284C20.8625 51.7859 20.9116 51.7341 20.9516 51.6728C20.9924 51.6107 21.0206 51.5396 21.0361 51.4596L21.4184 51.4608C21.398 51.5842 21.3584 51.6977 21.2996 51.8015C21.2416 51.9044 21.1668 51.9934 21.0753 52.0686C20.9847 52.1429 20.8809 52.2005 20.7641 52.2414C20.6473 52.2822 20.5199 52.3026 20.3818 52.3026C20.1645 52.3026 19.9709 52.2512 19.801 52.1482C19.6311 52.0445 19.4971 51.8962 19.3991 51.7034C19.3019 51.5106 19.2533 51.2807 19.2533 51.0136C19.2533 50.7456 19.3023 50.5157 19.4003 50.3237C19.4983 50.1309 19.6323 49.9831 19.8022 49.8801C19.9721 49.7764 20.1653 49.7245 20.3818 49.7245C20.515 49.7245 20.6391 49.7437 20.7543 49.7821C20.8703 49.8197 20.9745 49.8752 21.0668 49.9488C21.1591 50.0215 21.2355 50.1105 21.2959 50.2159C21.3564 50.3204 21.3972 50.4401 21.4184 50.5749ZM21.8336 52.2683V49.7588H23.4069V50.0848H22.2122V50.8494H23.3248V51.1741H22.2122V51.9424H23.4216V52.2683H21.8336ZM24.7499 52.2683V49.7588H25.6444C25.8396 49.7588 26.0014 49.7944 26.1296 49.8654C26.2579 49.9365 26.3539 50.0337 26.4176 50.1571C26.4813 50.2796 26.5132 50.4176 26.5132 50.5712C26.5132 50.7256 26.4809 50.8645 26.4164 50.9878C26.3526 51.1104 26.2562 51.2076 26.1272 51.2795C25.9989 51.3505 25.8376 51.3861 25.6432 51.3861H25.0281V51.065H25.6089C25.7322 51.065 25.8323 51.0438 25.9091 51.0013C25.9859 50.958 26.0422 50.8992 26.0782 50.8249C26.1141 50.7505 26.1321 50.666 26.1321 50.5712C26.1321 50.4765 26.1141 50.3923 26.0782 50.3188C26.0422 50.2453 25.9854 50.1877 25.9078 50.146C25.8311 50.1044 25.7298 50.0835 25.604 50.0835H25.1285V52.2683H24.7499ZM26.9191 52.2683V49.7588H27.2977V51.9424H28.4348V52.2683H26.9191ZM29.1688 52.2683H28.7669L29.67 49.7588H30.1074L31.0105 52.2683H30.6086L29.8991 50.2147H29.8795L29.1688 52.2683ZM29.2362 51.2856H30.54V51.6042H29.2362V51.2856ZM30.9146 50.0848V49.7588H32.8568V50.0848H32.0738V52.2683H31.6964V50.0848H30.9146ZM33.248 52.2683V49.7588H34.8042V50.0848H33.6266V50.8494H34.6927V51.1741H33.6266V52.2683H33.248ZM37.4117 51.0136C37.4117 51.2815 37.3627 51.5119 37.2647 51.7047C37.1667 51.8966 37.0323 52.0445 36.8615 52.1482C36.6916 52.2512 36.4984 52.3026 36.282 52.3026C36.0647 52.3026 35.8707 52.2512 35.6999 52.1482C35.53 52.0445 35.396 51.8962 35.298 51.7034C35.2 51.5106 35.151 51.2807 35.151 51.0136C35.151 50.7456 35.2 50.5157 35.298 50.3237C35.396 50.1309 35.53 49.9831 35.6999 49.8801C35.8707 49.7764 36.0647 49.7245 36.282 49.7245C36.4984 49.7245 36.6916 49.7764 36.8615 49.8801C37.0323 49.9831 37.1667 50.1309 37.2647 50.3237C37.3627 50.5157 37.4117 50.7456 37.4117 51.0136ZM37.0368 51.0136C37.0368 50.8093 37.0037 50.6374 36.9375 50.4977C36.8722 50.3572 36.7823 50.251 36.6679 50.1791C36.5544 50.1064 36.4257 50.0701 36.282 50.0701C36.1374 50.0701 36.0083 50.1064 35.8948 50.1791C35.7812 50.251 35.6914 50.3572 35.6252 50.4977C35.5598 50.6374 35.5272 50.8093 35.5272 51.0136C35.5272 51.2178 35.5598 51.3902 35.6252 51.5307C35.6914 51.6703 35.7812 51.7765 35.8948 51.8492C36.0083 51.9211 36.1374 51.9571 36.282 51.9571C36.4257 51.9571 36.5544 51.9211 36.6679 51.8492C36.7823 51.7765 36.8722 51.6703 36.9375 51.5307C37.0037 51.3902 37.0368 51.2178 37.0368 51.0136ZM37.8458 52.2683V49.7588H38.7403C38.9347 49.7588 39.0961 49.7923 39.2243 49.8593C39.3534 49.9263 39.4498 50.019 39.5135 50.1375C39.5772 50.2551 39.6091 50.3911 39.6091 50.5455C39.6091 50.6991 39.5768 50.8343 39.5123 50.9511C39.4486 51.0671 39.3522 51.1573 39.2231 51.2219C39.0948 51.2864 38.9335 51.3187 38.7391 51.3187H38.0615V50.9927H38.7048C38.8273 50.9927 38.927 50.9752 39.0038 50.94C39.0814 50.9049 39.1381 50.8539 39.1741 50.7869C39.21 50.7199 39.228 50.6394 39.228 50.5455C39.228 50.4507 39.2096 50.3686 39.1729 50.2992C39.1369 50.2298 39.0801 50.1767 39.0025 50.1399C38.9257 50.1023 38.8249 50.0835 38.6999 50.0835H38.2244V52.2683H37.8458ZM39.0846 51.1361L39.7047 52.2683H39.2733L38.6656 51.1361H39.0846ZM40.0318 49.7588H40.4913L41.2903 51.7096H41.3197L42.1186 49.7588H42.5781V52.2683H42.2178V50.4524H42.1946L41.4545 52.2646H41.1555L40.4154 50.4511H40.3921V52.2683H40.0318V49.7588Z" fill="white"/>
<path d="M9.01108 46.7314V38.7968C9.01108 38.4424 9.11474 38.194 9.32207 38.0515C9.52941 37.9087 9.80202 37.8377 10.1391 37.8377C10.3898 37.8377 10.6191 37.9068 10.7995 38.0008C11.3539 38.2919 11.1758 38.7027 11.1758 39.395V46.7314H9.01108ZM2.25668 44.9161C2.29968 44.925 2.4448 44.9399 2.69053 44.9618C2.93702 44.9833 3.30638 44.9941 3.79937 44.9941C4.13648 44.9941 4.41292 44.9726 4.6287 44.9292C4.84486 44.8862 5.01803 44.8255 5.1478 44.7476C5.27719 44.67 5.36818 44.5748 5.42002 44.4627C5.47185 44.3502 5.49757 44.2208 5.49757 44.0737C5.49757 43.9612 5.4803 43.8534 5.44575 43.7493C5.41119 43.6456 5.3486 43.5527 5.25761 43.471C5.16699 43.3888 5.04644 43.3239 4.89478 43.2763C4.74351 43.2287 4.54692 43.2049 4.30504 43.2049H2.25668V44.9161ZM4.13649 41.3251C4.35226 41.3251 4.53195 41.3013 4.6744 41.2537C4.81722 41.206 4.93164 41.1415 5.01802 41.0594C5.10441 40.9772 5.16508 40.8866 5.19925 40.7868C5.23381 40.6877 5.25147 40.586 5.25147 40.4823C5.25147 40.3702 5.23188 40.2577 5.1931 40.1452C5.15394 40.0327 5.07638 39.9336 4.95966 39.8473C4.84294 39.7605 4.67862 39.6914 4.46706 39.6399C4.25512 39.5877 3.98059 39.562 3.64387 39.562C3.28949 39.562 2.98042 39.5727 2.71665 39.5942C2.45326 39.6157 2.29968 39.6311 2.25668 39.6395V41.3251H4.13649ZM0.143433 38.9914C0.143433 38.8014 0.169156 38.6371 0.220988 38.4988C0.272821 38.3606 0.340007 38.2458 0.422172 38.1552C0.503953 38.0646 0.599173 37.9951 0.707063 37.9479C0.815336 37.9003 0.925526 37.8676 1.03764 37.8503C1.12403 37.8334 1.22578 37.8158 1.3425 37.7989C1.45922 37.7812 1.60627 37.7663 1.78327 37.7532C1.96027 37.7402 2.17643 37.7298 2.43137 37.721C2.68631 37.7121 2.99578 37.7079 3.35861 37.7079C4.16221 37.7079 4.82566 37.7728 5.3486 37.9026C5.87154 38.0319 6.2862 38.2113 6.59297 38.4405C6.90013 38.6697 7.1163 38.9396 7.24147 39.2506C7.36664 39.5616 7.4296 39.8991 7.4296 40.2619C7.4296 40.5299 7.39697 40.7676 7.33208 40.9749C7.27363 41.1682 7.19092 41.3533 7.08596 41.5259C6.91502 41.807 6.67654 42.041 6.39218 42.2066C6.5304 42.2584 6.67744 42.3364 6.83294 42.4401C6.98844 42.5437 7.13128 42.6758 7.26105 42.8355C7.39044 42.9952 7.49871 43.1899 7.5851 43.4191C7.67149 43.6479 7.71449 43.9136 7.71449 44.2162C7.71449 44.614 7.65421 44.9745 7.53326 45.2989C7.41232 45.623 7.19155 45.9017 6.87173 46.1352C6.55228 46.3682 6.11151 46.5475 5.54941 46.6727C4.98769 46.7982 4.27048 46.8608 3.39738 46.8608C2.99108 46.8613 2.58482 46.8549 2.17874 46.8416C1.79863 46.8286 1.46152 46.8155 1.16742 46.8028C0.873698 46.7898 0.635652 46.7744 0.454429 46.7572C0.350987 46.7461 0.247291 46.7375 0.143433 46.7314V38.9914ZM22.3256 38.9914C22.3256 38.8014 22.3517 38.6371 22.4036 38.4988C22.4554 38.3606 22.5226 38.2458 22.6047 38.1552C22.6865 38.0646 22.7817 37.9951 22.8896 37.9479C22.9979 37.9003 23.1081 37.8676 23.2206 37.8503C23.307 37.8334 23.4087 37.8158 23.5251 37.7989C23.6418 37.7812 23.7885 37.7663 23.9658 37.7532C24.1432 37.7402 24.359 37.7298 24.6139 37.721C24.8689 37.7121 25.1783 37.7079 25.5412 37.7079C26.3448 37.7079 27.0082 37.7728 27.5312 37.9026C28.0541 38.0319 28.4692 38.2113 28.7756 38.4405C29.0827 38.6697 29.2989 38.9396 29.424 39.2506C29.5492 39.5616 29.6122 39.8991 29.6122 40.2619C29.6122 40.5299 29.5795 40.7676 29.5146 40.9749C29.4562 41.1682 29.3735 41.3533 29.2685 41.5259C29.0974 41.8067 28.8591 42.0407 28.5751 42.2066C28.7134 42.2584 28.86 42.3364 29.0155 42.4401C29.171 42.5437 29.3138 42.6758 29.4436 42.8355C29.573 42.9952 29.6813 43.1899 29.7677 43.4191C29.8541 43.6479 29.8971 43.9136 29.8971 44.2162C29.8971 44.614 29.8368 44.9745 29.7158 45.2989C29.5949 45.623 29.3741 45.9017 29.0547 46.1352C28.7349 46.3682 28.2941 46.5475 27.7324 46.6727C27.1703 46.7982 26.4531 46.8608 25.58 46.8608C25.1476 46.8608 24.7418 46.8547 24.3613 46.8416C23.9812 46.8286 23.6441 46.8155 23.35 46.8028C23.0563 46.7898 22.8186 46.7744 22.637 46.7572C22.4554 46.7399 22.3517 46.7314 22.326 46.7314L22.3256 38.9914ZM26.3187 41.3251C26.5348 41.3251 26.7141 41.3013 26.857 41.2537C26.9998 41.206 27.1142 41.1415 27.2006 41.0594C27.287 40.9772 27.3477 40.8866 27.3822 40.7868C27.4168 40.6877 27.434 40.586 27.434 40.4823C27.434 40.3702 27.4148 40.2577 27.3757 40.1452C27.3369 40.0327 27.259 39.9336 27.1422 39.8473C27.0255 39.7605 26.8612 39.6914 26.6496 39.6399C26.4377 39.5877 26.1636 39.562 25.8265 39.562C25.4721 39.562 25.163 39.5727 24.8992 39.5942C24.6358 39.6157 24.4823 39.6311 24.4392 39.6395V41.3251H26.3187ZM24.4392 44.9161C24.4823 44.925 24.627 44.9399 24.8731 44.9618C25.1196 44.9833 25.4893 44.9941 25.982 44.9941C26.3191 44.9941 26.5955 44.9726 26.8117 44.9292C27.0278 44.8862 27.2006 44.8255 27.33 44.7476C27.4598 44.67 27.5508 44.5748 27.6026 44.4627C27.6544 44.3502 27.6801 44.2208 27.6801 44.0737C27.6801 43.9612 27.6629 43.8534 27.6283 43.7493C27.5938 43.6456 27.5312 43.5527 27.4402 43.471C27.3496 43.3888 27.229 43.3239 27.0774 43.2763C26.9261 43.2287 26.7295 43.2049 26.4876 43.2049H24.4392V44.9161ZM31.1936 39.0694C31.1936 38.2477 31.6214 37.8377 32.4772 37.8377H36.911C37.3088 37.8377 37.5918 37.9221 37.7603 38.0903C37.9292 38.2592 38.0133 38.5031 38.0133 38.8229C38.0133 39.5055 37.9043 39.8799 37.1759 39.8599H33.3587V41.2471H36.7428C37.1402 41.2471 37.4232 41.3316 37.5918 41.5001C37.7603 41.6687 37.8448 41.9129 37.8448 42.2323C37.8448 42.4884 37.7999 42.6977 37.7054 42.8593C37.5465 43.1319 37.2466 43.2698 36.7812 43.2698H33.3587V44.7088H37.9484V46.7314H31.1933L31.1936 39.0694ZM39.5042 39.0694C39.5042 38.2477 39.9319 37.8377 40.7877 37.8377H45.2216C45.6189 37.8377 45.9023 37.9221 46.0708 38.0903C46.2394 38.2592 46.3235 38.5031 46.3235 38.8229C46.3235 39.0563 46.3012 39.2748 46.2198 39.4645C46.0827 39.7843 45.9253 39.8169 45.4508 39.8599H41.6689V41.2471H45.053C45.4504 41.2471 45.7337 41.3316 45.9023 41.5001C46.0705 41.6687 46.1607 41.9129 46.1549 42.2323C46.1396 43.107 45.8132 43.2698 45.0292 43.2698H41.6693V44.7088H46.2586V46.7314H39.5042V39.0694ZM17.3059 46.9272C17.1373 46.9272 16.9719 46.9203 16.8102 46.9069C16.649 46.8935 16.49 46.8731 16.3349 46.8458C16.1805 46.819 16.0285 46.7852 15.8795 46.7445C15.5869 46.6642 15.303 46.5553 15.0318 46.4193C14.7613 46.2828 14.5056 46.119 14.2685 45.9305C14.1479 45.8349 14.0316 45.7332 13.9198 45.626C13.8058 45.5147 13.6991 45.4007 13.6 45.2836C13.2049 44.8209 12.9132 44.279 12.7446 43.6944C12.7016 43.5464 12.6661 43.3964 12.6382 43.2448C12.6094 43.0901 12.5879 42.933 12.5737 42.7745C12.5454 42.4466 12.5454 42.1168 12.5737 41.7889C12.5879 41.6288 12.6094 41.4706 12.6382 41.3147C12.6938 41.0129 12.7794 40.7175 12.8939 40.4328C13.0082 40.1544 13.1517 39.8888 13.322 39.6407C13.4077 39.5167 13.5002 39.3961 13.6004 39.2798C13.6998 39.1634 13.8062 39.0513 13.9198 38.9427C14.3607 38.5141 14.8856 38.1817 15.4614 37.9663C15.6058 37.9118 15.7536 37.8645 15.9045 37.8242C16.0554 37.7839 16.2105 37.7497 16.3702 37.7229C16.5295 37.696 16.6923 37.6753 16.8578 37.6618C17.1522 37.6381 17.448 37.6349 17.7428 37.6522C18.0985 37.671 18.4515 37.7237 18.7971 37.8096C19.0162 37.8649 19.2311 37.9355 19.4402 38.0208C19.7221 38.1368 19.8818 38.237 19.9801 38.3514C20.0822 38.4704 20.1148 38.5964 20.1429 38.7645C20.1951 39.0755 20.2089 39.4771 20.1544 39.7793C20.1302 39.9152 20.0914 40.0331 20.0361 40.1172C19.9716 40.2143 19.8856 40.2688 19.7747 40.2611C19.7228 40.2577 19.6672 40.2396 19.6065 40.2047C19.4604 40.1192 19.3086 40.0436 19.1523 39.9786C19.0095 39.9198 18.8632 39.8711 18.6896 39.8192C18.3008 39.7014 17.8968 39.6417 17.4906 39.6418C17.2805 39.6418 17.0817 39.6572 16.8935 39.6879C16.7114 39.7174 16.5324 39.7641 16.3591 39.8273C16.0276 39.9482 15.7248 40.1366 15.4699 40.3806C15.2815 40.557 15.1232 40.7629 15.001 40.9903C14.9199 41.1438 14.8555 41.3056 14.8091 41.4729C14.7846 41.5604 14.7645 41.6491 14.7488 41.7386C14.7325 41.8323 14.7204 41.9267 14.7127 42.0215C14.6888 42.3134 14.7004 42.6071 14.7473 42.8962C14.7767 43.0704 14.8236 43.2413 14.8874 43.4061C15.0098 43.7209 15.2003 44.0048 15.4453 44.2373C15.5677 44.3538 15.7007 44.4586 15.8427 44.5502C16.0518 44.6845 16.2804 44.7859 16.5203 44.8509C16.6876 44.8969 16.8588 44.9268 17.0317 44.9403C17.1212 44.948 17.2126 44.9518 17.3059 44.9518C17.3969 44.9518 17.4844 44.9488 17.5681 44.943C17.7271 44.9342 17.8851 44.9121 18.0404 44.877C18.1129 44.8605 18.1836 44.8409 18.2516 44.819C18.3742 44.7789 18.4927 44.7272 18.6055 44.6646C18.6983 44.6119 18.786 44.5505 18.8674 44.4815V42.2669C18.8655 41.6434 18.8647 41.4257 19.5128 41.4257H20.1264C20.9783 41.4257 20.9787 41.5347 20.978 42.3229C20.9822 43.3016 20.9787 44.2818 20.978 45.2609C20.978 45.4049 20.9753 45.4583 20.8562 45.5846C20.8083 45.636 20.8332 45.6111 20.7806 45.6602C20.6738 45.7609 20.5609 45.855 20.4427 45.942C20.3191 46.0334 20.1905 46.118 20.0576 46.1954C19.9187 46.2769 19.7758 46.3514 19.6295 46.4189C19.4717 46.4921 19.3107 46.558 19.1469 46.6166C18.98 46.6758 18.8102 46.7264 18.6382 46.7683C18.3788 46.8322 18.1151 46.8767 17.8492 46.9015C17.6686 46.9186 17.4873 46.9272 17.3059 46.9272Z" fill="#F5C423"/>
</svg>
