<svg width="44" height="52" viewBox="0 0 44 52" fill="none" xmlns="http://www.w3.org/2000/svg">
<path d="M34.5684 23.3019V11.2542C34.5684 10.8299 34.4567 10.413 34.2445 10.0455C34.0323 9.67804 33.7272 9.37289 33.3596 9.16074L22.9263 3.1369C22.5588 2.92471 22.1419 2.813 21.7175 2.813C21.2931 2.813 20.8762 2.92471 20.5087 3.1369L10.0754 9.16074C9.70785 9.37289 9.40266 9.67804 9.19048 10.0455C8.97829 10.413 8.86658 10.8299 8.86658 11.2542V23.3019C8.86658 23.7263 8.97829 24.1431 9.19048 24.5106C9.40266 24.8781 9.70785 25.1833 10.0754 25.3954L20.5087 31.4193C20.8762 31.6315 21.293 31.7432 21.7173 31.7432C22.1416 31.7432 22.5585 31.6315 22.9259 31.4193L33.3596 25.3954C33.7272 25.1833 34.0323 24.8781 34.2445 24.5106C34.4567 24.1431 34.5684 23.7263 34.5684 23.3019Z" fill="white"/>
<path d="M32.1228 21.8907V12.6669C32.1228 12.2426 32.011 11.8258 31.7989 11.4584C31.5867 11.091 31.2815 10.7859 30.914 10.5737L22.9259 5.96183C22.5584 5.74964 22.1416 5.63793 21.7173 5.63793C21.293 5.63793 20.8761 5.74964 20.5087 5.96183L12.5206 10.5737C12.1532 10.7859 11.8481 11.091 11.6359 11.4584C11.4238 11.8259 11.3122 12.2426 11.3121 12.6669V21.8907C11.3121 22.315 11.4237 22.7319 11.6359 23.0994C11.848 23.4668 12.1531 23.772 12.5206 23.9842L20.5087 28.5961C20.8762 28.8082 21.293 28.9199 21.7173 28.9199C22.1416 28.9199 22.5584 28.8082 22.9259 28.5961L30.914 23.9842C31.2815 23.772 31.5867 23.4669 31.7989 23.0994C32.0111 22.7319 32.1228 22.3151 32.1228 21.8907Z" fill="#F5C423"/>
<path fill-rule="evenodd" clip-rule="evenodd" d="M20.5087 3.1388L10.0754 9.16265C9.70785 9.37479 9.40266 9.67994 9.19048 10.0474C8.97829 10.4149 8.86658 10.8318 8.86658 11.2561V23.3038C8.86658 23.7282 8.97829 24.145 9.19048 24.5125C9.40266 24.88 9.70785 25.1852 10.0754 25.3973L20.5087 31.4212C20.8762 31.6334 21.2931 31.7451 21.7175 31.7451C22.1419 31.7451 22.5588 31.6334 22.9263 31.4212L33.3596 25.3973C33.7272 25.1852 34.0323 24.88 34.2445 24.5125C34.4567 24.145 34.5684 23.7282 34.5684 23.3038V11.2561C34.5684 10.8318 34.4567 10.4149 34.2445 10.0474C34.0323 9.67994 33.7272 9.37479 33.3596 9.16265L22.9263 3.1388C22.5588 2.92661 22.1419 2.8149 21.7175 2.8149C21.2931 2.8149 20.8762 2.92661 20.5087 3.1388ZM20.6013 19.0138L12.3648 23.8878C12.0403 23.6658 11.7748 23.3681 11.5914 23.0204C11.408 22.6726 11.3121 22.2854 11.3122 21.8923V12.6681C11.3122 12.2438 11.4239 11.827 11.636 11.4596C11.8481 11.0922 12.1532 10.7871 12.5206 10.5749L20.5087 5.96301C20.8762 5.75082 21.293 5.63911 21.7173 5.63911C22.1416 5.63911 22.5585 5.75082 22.9259 5.96301L30.9141 10.5749C31.2815 10.787 31.5867 11.0921 31.7989 11.4596C32.0111 11.827 32.1228 12.2438 32.1228 12.6681V21.8919C32.1228 22.2737 32.0325 22.65 31.859 22.9901C31.6856 23.3302 31.4341 23.6244 31.1251 23.8486L22.9546 19.0142C22.3047 18.6295 21.2513 18.6295 20.6013 19.0142" fill="black"/>
<path fill-rule="evenodd" clip-rule="evenodd" d="M20.4714 11.07L12.2363 15.6819C11.8528 15.8954 11.5337 16.2078 11.3121 16.5867V19.8193C11.5337 19.4405 11.8528 19.128 12.2363 18.9145L20.4714 14.3026C20.8523 14.0902 21.2813 13.9787 21.7175 13.9787C22.1537 13.9787 22.5826 14.0902 22.9636 14.3026L31.1987 18.9145C31.5821 19.128 31.9012 19.4405 32.1228 19.8193V16.5867C31.9013 16.2078 31.5821 15.8954 31.1987 15.6819L22.9636 11.07C22.5826 10.8576 22.1537 10.7461 21.7175 10.7461C21.2813 10.7461 20.8523 10.8576 20.4714 11.07Z" fill="black"/>
<path fill-rule="evenodd" clip-rule="evenodd" d="M20.4714 14.3026L12.2363 18.9146C11.8528 19.1281 11.5337 19.4405 11.3121 19.8194V21.8902C11.3121 22.2834 11.408 22.6706 11.5914 23.0183C11.7748 23.366 12.0403 23.6638 12.3648 23.8857L20.6013 19.0122C21.2509 18.6282 22.3046 18.6282 22.9546 19.0122L31.1251 23.8466C31.434 23.6225 31.6854 23.3284 31.8588 22.9884C32.0323 22.6484 32.1227 22.2722 32.1228 21.8906V19.8194C31.9012 19.4405 31.5821 19.1281 31.1987 18.9146L22.9636 14.3026C22.5826 14.0902 22.1537 13.9787 21.7175 13.9787C21.2813 13.9787 20.8523 14.0902 20.4714 14.3026Z" fill="#F5C423"/>
<path fill-rule="evenodd" clip-rule="evenodd" d="M15.7128 2.0019C14.9006 1.50123 14.2977 1.23959 13.3383 1.00882C11.9845 0.757225 11.0316 2.71325 12.4148 2.86686C12.745 2.92824 13.5515 3.15506 13.7446 3.23115C14.2327 3.42316 14.8019 3.76627 15.2599 4.18081C15.5507 4.44048 15.8084 4.73497 16.0272 5.05762L17.7737 4.0491C17.2367 3.2168 16.539 2.53954 15.7128 2.0019ZM27.7225 2.0019C26.8959 2.53954 26.1982 3.21679 25.6613 4.04945L27.4077 5.05762C27.6265 4.73497 27.8843 4.44048 28.175 4.18081C28.6334 3.76627 29.2026 3.42316 29.6907 3.23115C29.8838 3.15506 30.6903 2.92824 31.0205 2.86686C32.4037 2.71325 31.4504 0.757225 30.097 1.00882C29.1376 1.23959 28.5347 1.50123 27.7225 2.0019Z" fill="black"/>
<path d="M0.257717 50.1055V47.7597H1.72842V48.0643H0.611649V48.7791H1.65168V49.0826H0.611649V49.8008H1.74217V50.1055H0.257717ZM3.17482 48.7837V49.0815H2.13478V48.7837H3.17482ZM5.57161 48.5225H5.21424C5.2005 48.4462 5.17492 48.379 5.1375 48.3209C5.10009 48.2629 5.05427 48.2136 5.00005 48.1732C4.94584 48.1327 4.88513 48.1021 4.81793 48.0815C4.7515 48.0609 4.68087 48.0506 4.60603 48.0506C4.47087 48.0506 4.34984 48.0846 4.24294 48.1525C4.1368 48.2205 4.0528 48.3202 3.99095 48.4515C3.92986 48.5828 3.89931 48.7432 3.89931 48.9326C3.89931 49.1235 3.92986 49.2846 3.99095 49.4159C4.0528 49.5473 4.13718 49.6465 4.24408 49.7137C4.35099 49.7809 4.47126 49.8145 4.60489 49.8145C4.67896 49.8145 4.74921 49.8046 4.81564 49.7848C4.88284 49.7641 4.94355 49.734 4.99776 49.6943C5.05198 49.6546 5.09779 49.6061 5.13521 49.5488C5.17339 49.4908 5.19974 49.4243 5.21424 49.3495L5.57161 49.3506C5.55252 49.4659 5.51549 49.5721 5.46051 49.6691C5.40629 49.7653 5.33642 49.8485 5.2509 49.9188C5.16614 49.9883 5.06916 50.0421 4.95996 50.0803C4.85077 50.1185 4.73165 50.1375 4.6026 50.1375C4.39948 50.1375 4.2185 50.0894 4.05967 49.9932C3.90084 49.8962 3.77561 49.7576 3.68398 49.5774C3.59311 49.3972 3.54767 49.1823 3.54767 48.9326C3.54767 48.6821 3.59349 48.4672 3.68512 48.2877C3.77676 48.1075 3.90199 47.9693 4.06082 47.8731C4.21965 47.7761 4.40024 47.7276 4.6026 47.7276C4.72706 47.7276 4.84313 47.7455 4.9508 47.7814C5.05923 47.8166 5.15659 47.8685 5.24288 47.9372C5.32917 48.0052 5.40056 48.0884 5.45707 48.1869C5.51358 48.2846 5.55176 48.3965 5.57161 48.5225ZM7.99733 48.9326C7.99733 49.183 7.95151 49.3984 7.85988 49.5786C7.76825 49.758 7.64263 49.8962 7.48304 49.9932C7.32421 50.0894 7.14362 50.1375 6.94126 50.1375C6.73814 50.1375 6.55679 50.0894 6.39719 49.9932C6.23836 49.8962 6.11313 49.7576 6.0215 49.5774C5.92987 49.3972 5.88405 49.1823 5.88405 48.9326C5.88405 48.6821 5.92987 48.4672 6.0215 48.2877C6.11313 48.1075 6.23836 47.9693 6.39719 47.8731C6.55679 47.7761 6.73814 47.7276 6.94126 47.7276C7.14362 47.7276 7.32421 47.7761 7.48304 47.8731C7.64263 47.9693 7.76825 48.1075 7.85988 48.2877C7.95151 48.4672 7.99733 48.6821 7.99733 48.9326ZM7.64683 48.9326C7.64683 48.7417 7.61591 48.5809 7.55406 48.4504C7.49297 48.319 7.40897 48.2197 7.30207 48.1525C7.19593 48.0846 7.07566 48.0506 6.94126 48.0506C6.8061 48.0506 6.68545 48.0846 6.57931 48.1525C6.47317 48.2197 6.38918 48.319 6.32732 48.4504C6.26623 48.5809 6.23569 48.7417 6.23569 48.9326C6.23569 49.1235 6.26623 49.2846 6.32732 49.4159C6.38918 49.5465 6.47317 49.6458 6.57931 49.7137C6.68545 49.7809 6.8061 49.8145 6.94126 49.8145C7.07566 49.8145 7.19593 49.7809 7.30207 49.7137C7.40897 49.6458 7.49297 49.5465 7.55406 49.4159C7.61591 49.2846 7.64683 49.1235 7.64683 48.9326ZM8.40312 47.7597H8.83265L9.57945 49.5832H9.60694L10.3538 47.7597H10.7833V50.1055H10.4465V48.408H10.4248L9.73294 50.102H9.45346L8.76163 48.4068H8.73987V50.1055H8.40312V47.7597ZM11.2624 47.7597H11.6919L12.4387 49.5832H12.4662L13.213 47.7597H13.6425V50.1055H13.3058V48.408H13.284L12.5922 50.102H12.3127L11.6209 48.4068H11.5991V50.1055H11.2624V47.7597ZM14.1216 50.1055V47.7597H15.5923V48.0643H14.4756V48.7791H15.5156V49.0826H14.4756V49.8008H15.6061V50.1055H14.1216ZM16.0296 50.1055V47.7597H16.8658C17.0475 47.7597 17.1983 47.791 17.3182 47.8536C17.4389 47.9162 17.529 48.0029 17.5885 48.1136C17.6481 48.2236 17.6779 48.3507 17.6779 48.495C17.6779 48.6386 17.6477 48.765 17.5874 48.8742C17.5278 48.9826 17.4377 49.067 17.3171 49.1273C17.1972 49.1876 17.0464 49.2178 16.8646 49.2178H16.2312V48.9131H16.8326C16.9471 48.9131 17.0403 48.8967 17.112 48.8638C17.1846 48.831 17.2376 48.7833 17.2712 48.7207C17.3048 48.6581 17.3216 48.5828 17.3216 48.495C17.3216 48.4064 17.3045 48.3297 17.2701 48.2648C17.2365 48.1999 17.1834 48.1503 17.1109 48.1159C17.0391 48.0808 16.9448 48.0632 16.828 48.0632H16.3836V50.1055H16.0296ZM17.1876 49.0471L17.7672 50.1055H17.364L16.7959 49.0471H17.1876ZM20.0214 48.5225H19.664C19.6503 48.4462 19.6247 48.379 19.5873 48.3209C19.5499 48.2629 19.5041 48.2136 19.4498 48.1732C19.3956 48.1327 19.3349 48.1021 19.2677 48.0815C19.2013 48.0609 19.1307 48.0506 19.0558 48.0506C18.9207 48.0506 18.7996 48.0846 18.6927 48.1525C18.5866 48.2205 18.5026 48.3202 18.4407 48.4515C18.3796 48.5828 18.3491 48.7432 18.3491 48.9326C18.3491 49.1235 18.3796 49.2846 18.4407 49.4159C18.5026 49.5473 18.587 49.6465 18.6939 49.7137C18.8008 49.7809 18.921 49.8145 19.0547 49.8145C19.1287 49.8145 19.199 49.8046 19.2654 49.7848C19.3326 49.7641 19.3933 49.734 19.4476 49.6943C19.5018 49.6546 19.5476 49.6061 19.585 49.5488C19.6232 49.4908 19.6495 49.4243 19.664 49.3495L20.0214 49.3506C20.0023 49.4659 19.9653 49.5721 19.9103 49.6691C19.8561 49.7653 19.7862 49.8485 19.7007 49.9188C19.6159 49.9883 19.5189 50.0421 19.4098 50.0803C19.3006 50.1185 19.1814 50.1375 19.0524 50.1375C18.8493 50.1375 18.6683 50.0894 18.5095 49.9932C18.3506 49.8962 18.2254 49.7576 18.1338 49.5774C18.0429 49.3972 17.9975 49.1823 17.9975 48.9326C17.9975 48.6821 18.0433 48.4672 18.1349 48.2877C18.2265 48.1075 18.3518 47.9693 18.5106 47.8731C18.6694 47.7761 18.85 47.7276 19.0524 47.7276C19.1769 47.7276 19.2929 47.7455 19.4006 47.7814C19.509 47.8166 19.6064 47.8685 19.6927 47.9372C19.779 48.0052 19.8504 48.0884 19.9069 48.1869C19.9634 48.2846 20.0015 48.3965 20.0214 48.5225ZM20.4094 50.1055V47.7597H21.8801V48.0643H20.7634V48.7791H21.8034V49.0826H20.7634V49.8008H21.8939V50.1055H20.4094ZM23.1356 50.1055V47.7597H23.9717C24.1542 47.7597 24.3054 47.7929 24.4253 47.8593C24.5452 47.9258 24.6349 48.0166 24.6945 48.1319C24.754 48.2465 24.7838 48.3755 24.7838 48.5191C24.7838 48.6634 24.7536 48.7932 24.6933 48.9085C24.6338 49.0231 24.5437 49.1139 24.423 49.1811C24.3031 49.2476 24.1523 49.2808 23.9706 49.2808H23.3956V48.9807H23.9385C24.0538 48.9807 24.1473 48.9608 24.2191 48.9211C24.2909 48.8806 24.3436 48.8257 24.3772 48.7562C24.4108 48.6867 24.4276 48.6077 24.4276 48.5191C24.4276 48.4305 24.4108 48.3518 24.3772 48.2831C24.3436 48.2144 24.2905 48.1606 24.218 48.1216C24.1462 48.0827 24.0515 48.0632 23.9339 48.0632H23.4895V50.1055H23.1356ZM25.1633 50.1055V47.7597H25.5172V49.8008H26.5801V50.1055H25.1633ZM27.2663 50.1055H26.8906L27.7347 47.7597H28.1436L28.9878 50.1055H28.6121L27.9489 48.1858H27.9306L27.2663 50.1055ZM27.3292 49.1869H28.548V49.4847H27.3292V49.1869ZM28.8982 48.0643V47.7597H30.7137V48.0643H29.9818V50.1055H29.629V48.0643H28.8982ZM31.0794 50.1055V47.7597H32.534V48.0643H31.4333V48.7791H32.4298V49.0826H31.4333V50.1055H31.0794ZM34.9715 48.9326C34.9715 49.183 34.9257 49.3984 34.8341 49.5786C34.7424 49.758 34.6168 49.8962 34.4572 49.9932C34.2984 50.0894 34.1178 50.1375 33.9154 50.1375C33.7123 50.1375 33.531 50.0894 33.3714 49.9932C33.2125 49.8962 33.0873 49.7576 32.9957 49.5774C32.904 49.3972 32.8582 49.1823 32.8582 48.9326C32.8582 48.6821 32.904 48.4672 32.9957 48.2877C33.0873 48.1075 33.2125 47.9693 33.3714 47.8731C33.531 47.7761 33.7123 47.7276 33.9154 47.7276C34.1178 47.7276 34.2984 47.7761 34.4572 47.8731C34.6168 47.9693 34.7424 48.1075 34.8341 48.2877C34.9257 48.4672 34.9715 48.6821 34.9715 48.9326ZM34.621 48.9326C34.621 48.7417 34.5901 48.5809 34.5282 48.4504C34.4671 48.319 34.3831 48.2197 34.2762 48.1525C34.1701 48.0846 34.0498 48.0506 33.9154 48.0506C33.7803 48.0506 33.6596 48.0846 33.5535 48.1525C33.4473 48.2197 33.3633 48.319 33.3015 48.4504C33.2404 48.5809 33.2099 48.7417 33.2099 48.9326C33.2099 49.1235 33.2404 49.2846 33.3015 49.4159C33.3633 49.5465 33.4473 49.6458 33.5535 49.7137C33.6596 49.7809 33.7803 49.8145 33.9154 49.8145C34.0498 49.8145 34.1701 49.7809 34.2762 49.7137C34.3831 49.6458 34.4671 49.5465 34.5282 49.4159C34.5901 49.2846 34.621 49.1235 34.621 48.9326ZM35.3773 50.1055V47.7597H36.2134C36.3952 47.7597 36.546 47.791 36.6659 47.8536C36.7865 47.9162 36.8766 48.0029 36.9362 48.1136C36.9958 48.2236 37.0255 48.3507 37.0255 48.495C37.0255 48.6386 36.9954 48.765 36.935 48.8742C36.8755 48.9826 36.7854 49.067 36.6647 49.1273C36.5448 49.1876 36.394 49.2178 36.2123 49.2178H35.5789V48.9131H36.1802C36.2948 48.9131 36.3879 48.8967 36.4597 48.8638C36.5322 48.831 36.5853 48.7833 36.6189 48.7207C36.6525 48.6581 36.6693 48.5828 36.6693 48.495C36.6693 48.4064 36.6521 48.3297 36.6178 48.2648C36.5842 48.1999 36.5311 48.1503 36.4586 48.1159C36.3868 48.0808 36.2925 48.0632 36.1756 48.0632H35.7312V50.1055H35.3773ZM36.5353 49.0471L37.1149 50.1055H36.7117L36.1436 49.0471H36.5353ZM37.4207 47.7597H37.8503L38.5971 49.5832H38.6246L39.3714 47.7597H39.8009V50.1055H39.4641V48.408H39.4424L38.7505 50.102H38.4711L37.7792 48.4068H37.7575V50.1055H37.4207V47.7597Z" fill="black"/>
<path d="M8.42315 44.6685V37.2514C8.42315 36.9201 8.52005 36.6879 8.71386 36.5548C8.90767 36.4212 9.1625 36.3548 9.47726 36.3548C9.71162 36.3548 9.9259 36.4194 10.0946 36.5074C10.6128 36.7794 10.4467 37.1635 10.4467 37.8106V44.6685H8.42315ZM2.10896 42.9716C2.14952 42.9799 2.28482 42.9939 2.51488 43.0143C2.74529 43.0344 3.09057 43.0445 3.55104 43.0445C3.86616 43.0445 4.12491 43.0244 4.32662 42.9838C4.52868 42.9436 4.69019 42.8869 4.8115 42.814C4.93281 42.7415 5.01751 42.6525 5.06596 42.5477C5.11441 42.4426 5.13882 42.3216 5.13882 42.1842C5.13882 42.079 5.12269 41.9782 5.09038 41.8809C5.05547 41.7803 4.99482 41.6906 4.9145 41.6207C4.82944 41.5439 4.71677 41.4832 4.57536 41.4387C4.43395 41.3942 4.24981 41.372 4.0237 41.372H2.10896V42.9716ZM3.86616 39.6148C4.06822 39.6148 4.23582 39.5925 4.36933 39.548C4.50249 39.5035 4.60979 39.4432 4.69019 39.3664C4.77094 39.2896 4.82766 39.2049 4.85996 39.1116C4.89226 39.019 4.90841 38.9239 4.90841 38.827C4.90841 38.7222 4.89048 38.617 4.85387 38.5119C4.81762 38.4067 4.74475 38.3141 4.63564 38.2334C4.52689 38.1522 4.37328 38.0876 4.17516 38.0395C3.9774 37.9907 3.72079 37.9667 3.40568 37.9667C3.07441 37.9667 2.78549 37.9767 2.53928 37.9968C2.29271 38.0169 2.14952 38.0313 2.10896 38.0392V39.6148H3.86616ZM0.133545 37.4334C0.133545 37.2557 0.157601 37.1021 0.206053 36.9729C0.254864 36.8437 0.317309 36.7364 0.394114 36.6517C0.47092 36.567 0.559921 36.502 0.660773 36.4578C0.761625 36.4133 0.864647 36.3828 0.969447 36.3667C1.1997 36.3222 1.43245 36.2919 1.66642 36.2759C1.83224 36.2637 2.03431 36.254 2.27262 36.2457C2.51093 36.2375 2.79985 36.2335 3.13902 36.2335C3.89056 36.2335 4.51074 36.2942 4.99921 36.4155C5.48804 36.5365 5.87602 36.7041 6.16278 36.9183C6.4499 37.1326 6.6516 37.3849 6.76861 37.6756C6.88772 37.9764 6.94744 38.2974 6.94447 38.621C6.94447 38.8715 6.91432 39.0936 6.85367 39.2875C6.79893 39.4682 6.72152 39.6412 6.62326 39.8025C6.46357 40.0653 6.24075 40.284 5.97507 40.4388C6.10428 40.4873 6.24138 40.5601 6.3871 40.657C6.53245 40.7539 6.66597 40.8774 6.78692 41.0267C6.90823 41.176 7.00944 41.358 7.08983 41.5722C7.17059 41.7861 7.21115 42.0345 7.21115 42.3173C7.21115 42.6891 7.15443 43.0262 7.04138 43.3294C6.92832 43.6323 6.72196 43.8929 6.42335 44.1111C6.12438 44.329 5.71271 44.4966 5.18727 44.6136C4.6622 44.731 3.99142 44.7895 3.17527 44.7895C2.7715 44.7895 2.39178 44.7837 2.03611 44.7715C1.68079 44.7593 1.36567 44.7471 1.09111 44.7353C0.816191 44.7231 0.594018 44.7087 0.424256 44.6925C0.327561 44.6822 0.230629 44.6742 0.133545 44.6685V37.4334ZM20.8692 37.4334C20.8692 37.2557 20.8937 37.1021 20.9421 36.9729C20.9906 36.8437 21.0534 36.7364 21.1298 36.6517C21.2066 36.567 21.2956 36.502 21.3965 36.4578C21.4973 36.4133 21.6003 36.3828 21.7055 36.3667C21.7863 36.3509 21.8813 36.3344 21.9904 36.3186C22.0992 36.3021 22.2367 36.2881 22.4021 36.2759C22.5679 36.2637 22.77 36.254 23.0083 36.2457C23.2466 36.2375 23.5355 36.2335 23.8747 36.2335C24.6262 36.2335 25.2461 36.2942 25.7349 36.4155C26.2237 36.5365 26.6117 36.7041 26.8985 36.9183C27.1856 37.1326 27.3873 37.3849 27.5043 37.6756C27.6217 37.9663 27.6802 38.2818 27.6802 38.621C27.6802 38.8715 27.65 39.0936 27.5894 39.2875C27.5346 39.4682 27.4572 39.6412 27.3589 39.8025C27.1989 40.0651 26.976 40.2838 26.7104 40.4388C26.8557 40.4956 26.9941 40.5688 27.1228 40.657C27.2682 40.7539 27.4013 40.8774 27.5226 41.0267C27.6439 41.176 27.7451 41.358 27.8255 41.5722C27.9066 41.7861 27.9468 42.0345 27.9468 42.3173C27.9468 42.6891 27.8901 43.0262 27.7771 43.3294C27.664 43.6323 27.458 43.8929 27.159 44.1111C26.8601 44.329 26.4484 44.4966 25.923 44.6136C25.3979 44.731 24.7271 44.7895 23.911 44.7895C23.5313 44.7899 23.1516 44.7839 22.7722 44.7715C22.4165 44.7593 22.1014 44.7471 21.8268 44.7353C21.5519 44.7231 21.3297 44.7087 21.1603 44.6925C20.9905 44.6764 20.8937 44.6685 20.8692 44.6685V37.4334ZM24.6018 39.6148C24.8039 39.6148 24.9715 39.5925 25.105 39.548C25.2382 39.5035 25.3455 39.4432 25.4259 39.3664C25.507 39.2896 25.5634 39.2049 25.5957 39.1116C25.628 39.019 25.6441 38.9239 25.6441 38.827C25.6441 38.7222 25.6262 38.617 25.5895 38.5119C25.5533 38.4067 25.4804 38.3141 25.3713 38.2334C25.2626 38.1522 25.109 38.0876 24.9109 38.0395C24.7131 37.9907 24.4565 37.9667 24.1414 37.9667C23.8101 37.9667 23.5212 37.9767 23.275 37.9968C23.0284 38.0169 22.8848 38.0313 22.8446 38.0392V39.6148H24.6018ZM22.8446 42.9716C22.8848 42.9799 23.0205 42.9939 23.2506 43.0143C23.481 43.0344 23.8262 43.0445 24.2867 43.0445C24.6018 43.0445 24.8606 43.0244 25.0623 42.9838C25.2644 42.9436 25.4259 42.8869 25.5468 42.814C25.6685 42.7415 25.7532 42.6525 25.8017 42.5477C25.8501 42.4426 25.8745 42.3216 25.8745 42.1842C25.8745 42.079 25.8584 41.9782 25.8261 41.8809C25.7938 41.784 25.7349 41.6971 25.6502 41.6207C25.5655 41.5439 25.4525 41.4832 25.3107 41.4387C25.1696 41.3942 24.9859 41.372 24.7594 41.372H22.8446V42.9716ZM29.1589 37.5062C29.1589 36.7382 29.5587 36.3548 30.3583 36.3548H34.5033C34.8748 36.3548 35.1396 36.4338 35.2972 36.591C35.4548 36.7489 35.5333 36.9768 35.5333 37.2758C35.5333 37.9139 35.4314 38.2639 34.7509 38.2452H31.1827V39.5419H34.3457C34.7172 39.5419 34.9821 39.6209 35.1396 39.7784C35.2972 39.936 35.3758 40.1643 35.3758 40.4629C35.3758 40.7023 35.3342 40.8979 35.2459 41.049C35.0973 41.3038 34.8166 41.4326 34.3816 41.4326H31.1827V42.7778H35.4727V44.6685H29.1589V37.5062ZM36.927 37.5062C36.927 36.7382 37.3268 36.3548 38.1268 36.3548H42.2714C42.6432 36.3548 42.9078 36.4338 43.0653 36.591C43.2232 36.7489 43.3018 36.9768 43.3018 37.2758C43.3018 37.494 43.2807 37.6982 43.2049 37.8755C43.0764 38.1745 42.9293 38.205 42.486 38.2452H38.9508V39.5419H42.1142C42.4857 39.5419 42.7502 39.6209 42.9077 39.7784C43.0653 39.936 43.1493 40.1643 43.1443 40.4629C43.1296 41.2804 42.8248 41.4326 42.0916 41.4326H38.9512V42.7778H43.2412V44.6685H36.927V37.5062ZM16.1769 44.8515C16.019 44.8515 15.8647 44.8451 15.7132 44.8325C15.5625 44.82 15.4143 44.8009 15.2689 44.7755C15.1246 44.7503 14.9829 44.7188 14.8436 44.6807C14.5701 44.6057 14.3046 44.5039 14.0511 44.3767C13.7984 44.2491 13.5593 44.096 13.3376 43.9198C13.2245 43.8303 13.1157 43.7353 13.0118 43.6352C12.9048 43.5311 12.805 43.4245 12.7124 43.3151C12.3434 42.8824 12.0709 42.3759 11.9131 41.8296C11.8729 41.6912 11.8396 41.551 11.8134 41.4093C11.7865 41.2647 11.7667 41.1179 11.7534 40.9696C11.7269 40.6631 11.7269 40.3549 11.7534 40.0483C11.7667 39.8987 11.7865 39.7508 11.8134 39.6051C11.8653 39.323 11.9453 39.0468 12.0524 38.7807C12.1593 38.5204 12.2935 38.2723 12.4526 38.0403C12.5326 37.9243 12.6195 37.8116 12.7128 37.7029C12.8061 37.5941 12.9055 37.4893 13.0118 37.3878C13.4239 36.9873 13.9146 36.6766 14.4528 36.4751C14.5877 36.4241 14.7255 36.38 14.8666 36.3423C15.0076 36.3046 15.153 36.2727 15.3019 36.2475C15.4509 36.2224 15.6034 36.203 15.7577 36.1905C16.0329 36.1683 16.3094 36.1653 16.585 36.1815C16.9175 36.199 17.2475 36.2483 17.5705 36.3286C17.7754 36.3804 17.9764 36.4463 18.1721 36.526C18.4352 36.6344 18.5848 36.7281 18.6767 36.8351C18.7722 36.9463 18.8023 37.064 18.8289 37.2212C18.8773 37.512 18.8906 37.8874 18.8396 38.1698C18.817 38.2969 18.7808 38.4071 18.7287 38.4857C18.6684 38.5765 18.588 38.6274 18.4847 38.6202C18.4362 38.617 18.3838 38.6002 18.3275 38.5675C18.1909 38.4875 18.049 38.4169 17.9029 38.3561C17.7694 38.3012 17.6326 38.2556 17.4701 38.2072C17.1066 38.097 16.729 38.0412 16.3492 38.0413C16.1529 38.0413 15.967 38.0557 15.7915 38.0844C15.6212 38.112 15.4539 38.1556 15.2919 38.2147C14.982 38.3277 14.6989 38.5038 14.4606 38.7319C14.2846 38.8968 14.1366 39.0893 14.0224 39.3018C13.9465 39.4453 13.8864 39.5965 13.843 39.7529C13.82 39.8348 13.8011 39.9176 13.7863 40.0013C13.771 40.0889 13.7598 40.1772 13.7525 40.2658C13.7448 40.3589 13.741 40.4523 13.741 40.5458C13.741 40.7353 13.7558 40.9147 13.7848 41.0834C13.8143 41.2521 13.8577 41.4111 13.9162 41.56C14.0306 41.8543 14.2087 42.1197 14.4377 42.3371C14.552 42.446 14.6762 42.5439 14.8088 42.6296C15.0044 42.755 15.218 42.8498 15.4422 42.9106C15.5986 42.9536 15.7587 42.9816 15.9203 42.9942C16.0039 43.0014 16.0893 43.005 16.1769 43.005C16.262 43.005 16.3435 43.0021 16.4217 42.9967C16.5703 42.9885 16.718 42.9679 16.8632 42.935C16.9314 42.9196 16.997 42.9013 17.0606 42.8808C17.1753 42.8433 17.2862 42.795 17.3918 42.7365C17.4784 42.6872 17.5603 42.6299 17.6362 42.5653V40.4952C17.6344 39.9123 17.6341 39.7088 18.2399 39.7088H18.8131C19.6098 39.7088 19.6099 39.8107 19.6091 40.5476C19.6134 41.4624 19.6098 42.3787 19.6095 43.2939C19.6095 43.4285 19.607 43.4784 19.4954 43.5965C19.4505 43.6446 19.4738 43.6212 19.425 43.6672C19.325 43.7613 19.2194 43.8492 19.1088 43.9306C18.9933 44.016 18.8733 44.0951 18.7492 44.1675C18.6191 44.2436 18.4855 44.3133 18.3487 44.3764C18.2013 44.4447 18.0509 44.5064 17.8979 44.5612C17.6639 44.6445 17.424 44.7097 17.1801 44.7564C16.8496 44.8206 16.5136 44.8524 16.1769 44.8515Z" fill="black"/>
</svg>
