<svg width="33" height="33" viewBox="0 0 33 33" fill="none" xmlns="http://www.w3.org/2000/svg">
<path d="M16.3345 3.31195C20.6163 3.31195 21.2001 3.31195 22.9517 3.31195C24.5087 3.31195 25.2872 3.7012 25.8711 3.89582C26.6496 4.28507 27.2335 4.4797 27.8174 5.06357C28.4012 5.64745 28.7905 6.23132 28.9851 7.00982C29.1797 7.59369 29.3744 8.37219 29.569 9.92919C29.569 11.6808 29.569 12.0701 29.569 16.5464C29.569 21.0228 29.569 21.412 29.569 23.1637C29.569 24.7207 29.1797 25.4992 28.9851 26.083C28.5959 26.8615 28.4012 27.4454 27.8174 28.0293C27.2335 28.6132 26.6496 29.0024 25.8711 29.197C25.2872 29.3917 24.5087 29.5863 22.9517 29.7809C21.2001 29.7809 20.8109 29.7809 16.3345 29.7809C11.8581 29.7809 11.4689 29.7809 9.71727 29.7809C8.16028 29.7809 7.38178 29.3917 6.7979 29.197C6.01941 28.8078 5.43553 28.6132 4.85166 28.0293C4.26778 27.4454 3.87853 26.8615 3.68391 26.083C3.48928 25.4992 3.29466 24.7207 3.10003 23.1637C3.10003 21.412 3.10003 21.0228 3.10003 16.5464C3.10003 12.0701 3.10003 11.6808 3.10003 9.92919C3.10003 8.37219 3.48928 7.59369 3.68391 7.00982C4.07316 6.23132 4.26778 5.64745 4.85166 5.06357C5.43553 4.4797 6.01941 4.09045 6.7979 3.89582C7.38178 3.7012 8.16028 3.50657 9.71727 3.31195C11.4689 3.31195 12.0528 3.31195 16.3345 3.31195ZM16.3345 0.392578C11.8581 0.392578 11.4689 0.392578 9.71727 0.392578C7.96565 0.392578 6.7979 0.781829 5.82478 1.17108C4.85166 1.56033 3.87853 2.1442 2.90541 3.11732C1.93229 4.09045 1.54304 4.86895 0.959164 6.0367C0.569915 7.00982 0.375289 8.17757 0.180664 9.92919C0.180664 11.6808 0.180664 12.2647 0.180664 16.5464C0.180664 21.0228 0.180664 21.412 0.180664 23.1637C0.180664 24.9153 0.569915 26.083 0.959164 27.0562C1.34841 28.0293 1.93229 29.0024 2.90541 29.9755C3.87853 30.9487 4.65703 31.3379 5.82478 31.9218C6.7979 32.311 7.96565 32.5056 9.71727 32.7003C11.4689 32.7003 12.0528 32.7003 16.3345 32.7003C20.6163 32.7003 21.2001 32.7003 22.9517 32.7003C24.7034 32.7003 25.8711 32.311 26.8442 31.9218C27.8174 31.5325 28.7905 30.9487 29.7636 29.9755C30.7367 29.0024 31.126 28.2239 31.7099 27.0562C32.0991 26.083 32.2937 24.9153 32.4884 23.1637C32.4884 21.412 32.4884 20.8282 32.4884 16.5464C32.4884 12.2647 32.4884 11.6808 32.4884 9.92919C32.4884 8.17757 32.0991 7.00982 31.7099 6.0367C31.3206 5.06357 30.7367 4.09045 29.7636 3.11732C28.7905 2.1442 28.012 1.75495 26.8442 1.17108C25.8711 0.781829 24.7034 0.587203 22.9517 0.392578C21.2001 0.392578 20.8109 0.392578 16.3345 0.392578Z" fill="black"/>
<path d="M16.3345 8.17757C11.6635 8.17757 7.96565 11.8754 7.96565 16.5464C7.96565 21.2174 11.6635 24.9153 16.3345 24.9153C21.0055 24.9153 24.7034 21.2174 24.7034 16.5464C24.7034 11.8754 21.0055 8.17757 16.3345 8.17757ZM16.3345 21.9959C13.4151 21.9959 10.885 19.6604 10.885 16.5464C10.885 13.6271 13.2205 11.0969 16.3345 11.0969C19.2539 11.0969 21.784 13.4324 21.784 16.5464C21.784 19.4658 19.2539 21.9959 16.3345 21.9959Z" fill="black"/>
<path d="M24.898 9.92919C25.9729 9.92919 26.8442 9.05782 26.8442 7.98294C26.8442 6.90806 25.9729 6.0367 24.898 6.0367C23.8231 6.0367 22.9517 6.90806 22.9517 7.98294C22.9517 9.05782 23.8231 9.92919 24.898 9.92919Z" fill="black"/>
</svg>
