<svg width="35" height="35" viewBox="0 0 35 35" fill="none" xmlns="http://www.w3.org/2000/svg">
<path d="M29.4519 5.33969C26.2605 2.1594 22.0054 0.392578 17.5138 0.392578C8.17609 0.392578 0.611361 7.93104 0.611361 17.2363C0.611361 20.181 1.43875 23.1257 2.85714 25.5993L0.493164 34.3157L9.47628 31.9599C11.9585 33.2556 14.677 33.9623 17.5138 33.9623C26.8515 33.9623 34.4162 26.4238 34.4162 17.1185C34.298 12.7604 32.6433 8.51998 29.4519 5.33969ZM25.6695 23.2435C25.3149 24.1858 23.6601 25.1282 22.8327 25.2459C22.1236 25.3637 21.178 25.3637 20.2324 25.1282C19.6414 24.8926 18.814 24.657 17.8684 24.1858C13.6132 22.419 10.8947 18.1786 10.6583 17.8253C10.4219 17.5897 8.88529 15.5873 8.88529 13.4671C8.88529 11.3469 9.94907 10.4046 10.3037 9.93344C10.6583 9.46229 11.1311 9.46229 11.4857 9.46229C11.7221 9.46229 12.0766 9.46229 12.313 9.46229C12.5494 9.46229 12.904 9.3445 13.2586 10.169C13.6132 10.9935 14.4406 13.1137 14.5588 13.2315C14.677 13.4671 14.677 13.7027 14.5588 13.9383C14.4406 14.1738 14.3224 14.4094 14.086 14.645C13.8496 14.8806 13.6132 15.2339 13.495 15.3517C13.2586 15.5873 13.0222 15.8229 13.2586 16.1762C13.495 16.6474 14.3224 17.9431 15.6226 19.1209C17.2774 20.5344 18.5776 21.0056 19.0504 21.2411C19.5232 21.4767 19.7596 21.3589 19.996 21.1233C20.2324 20.8878 21.0598 19.9455 21.2962 19.4743C21.5326 19.0032 21.8872 19.1209 22.2418 19.2387C22.5964 19.3565 24.7239 20.4166 25.0785 20.6522C25.5513 20.8878 25.7877 21.0056 25.9059 21.1233C26.0241 21.4767 26.0241 22.3012 25.6695 23.2435Z" fill="black"/>
</svg>
